<svg width="27" height="27" viewBox="0 0 27 27" fill="none" xmlns="http://www.w3.org/2000/svg">
<circle cx="13.2222" cy="13.2168" r="13" fill="#FFD100"/>
<g filter="url(#filter0_i_79_768)">
<circle cx="13.222" cy="13.2166" r="9.84848" fill="#FF9000"/>
</g>
<path d="M13.682 18.3573C10.42 18.3573 8.50195 16.4533 8.50195 13.5273C8.50195 10.6013 10.42 8.69727 13.682 8.69727C16.832 8.69727 18.722 10.1953 18.722 12.7013V12.9393H15.782V12.7013C15.782 11.6373 15.278 11.2173 13.724 11.2173C11.82 11.2173 11.302 11.6653 11.302 13.5273C11.302 15.3893 11.82 15.8373 13.724 15.8373C15.278 15.8373 15.782 15.4173 15.782 14.3533V14.1153H18.722V14.3533C18.722 16.8593 16.832 18.3573 13.682 18.3573Z" fill="white"/>
<defs>
<filter id="filter0_i_79_768" x="3.37354" y="3.36816" width="19.6968" height="19.6973" filterUnits="userSpaceOnUse" color-interpolation-filters="sRGB">
<feFlood flood-opacity="0" result="BackgroundImageFix"/>
<feBlend mode="normal" in="SourceGraphic" in2="BackgroundImageFix" result="shape"/>
<feColorMatrix in="SourceAlpha" type="matrix" values="0 0 0 0 0 0 0 0 0 0 0 0 0 0 0 0 0 0 127 0" result="hardAlpha"/>
<feOffset dx="2" dy="2"/>
<feComposite in2="hardAlpha" operator="arithmetic" k2="-1" k3="1"/>
<feColorMatrix type="matrix" values="0 0 0 0 0.94902 0 0 0 0 0.427451 0 0 0 0 0 0 0 0 1 0"/>
<feBlend mode="normal" in2="shape" result="effect1_innerShadow_79_768"/>
</filter>
</defs>
</svg>
