
<svg width="88" height="41" viewBox="0 0 88 41" fill="none" xmlns="http://www.w3.org/2000/svg">
<g clip-path="url(#clip0_79_747)">
<path fill-rule="evenodd" clip-rule="evenodd" d="M17.899 2.4973H12.9291C12.3373 2.4973 11.8834 2.47754 11.0755 2.53682C9.61643 2.63469 8.15641 3.02802 6.83513 3.69705C4.68522 4.77824 2.90999 6.56799 1.90487 8.75107C1.39241 9.83225 1.03755 10.9925 0.918632 12.1922C0.800661 13.5096 0.859175 14.2765 0.839355 15.2203V27.884H5.94704V15.2203C5.94704 14.3358 5.92723 13.2734 5.98668 12.7427C6.04614 12.1132 6.24339 11.4846 6.51897 10.9144C7.05126 9.75415 8.01768 8.79059 9.14171 8.22035C9.83161 7.86654 10.6008 7.65012 11.3898 7.6106C11.705 7.57107 12.376 7.59084 12.9281 7.59084H14.6241L17.898 2.49824L17.899 2.4973Z" fill="white"/>
<path d="M19.4725 39.0134H16.8102V37.6763C16.0806 38.6399 14.9566 39.2496 13.4768 39.2496C10.6955 39.2496 8.99951 37.4401 8.99951 34.2944V27.4121H11.7213V34.0187C11.7213 35.8282 12.5103 36.9292 14.2063 36.9292C15.705 36.9292 16.7903 35.8282 16.7903 33.7825V27.4111H19.4725V39.0125V39.0134Z" fill="white"/>
<path d="M23.6922 37.5192V39.0332H21.0298V24.3643H23.712V28.8866C24.5208 27.8638 25.9015 27.1759 27.4786 27.1759C30.3977 27.1759 33.1978 29.3778 33.1978 33.2321C33.1978 37.0863 30.2986 39.2685 27.5182 39.2685C25.9204 39.2685 24.5406 38.6192 23.6922 37.5182V37.5192ZM30.5553 33.1935C30.5553 31.1873 29.0169 29.6149 27.0643 29.6149C25.1116 29.6149 23.6129 31.208 23.6129 33.1935C23.6129 35.179 25.0918 36.8116 27.0643 36.8116C29.0367 36.8116 30.5553 35.2185 30.5553 33.1935Z" fill="white"/>
<path d="M33.5947 36.6144L36.0599 34.6675C36.7894 35.9454 37.9134 36.6342 39.2347 36.6342C40.6749 36.6342 41.4431 35.7101 41.4431 34.6873C41.4431 33.4678 39.9444 33.0744 38.4259 32.603C36.4534 31.9735 34.3035 31.2264 34.3035 28.474C34.3035 26.1535 36.3345 24.3252 39.1158 24.3252C41.4431 24.3252 42.8239 25.2097 43.9875 26.4292L41.7593 28.1202C41.1477 27.1961 40.2606 26.7238 39.1366 26.7238C37.7955 26.7238 37.1056 27.4314 37.1056 28.3752C37.1056 29.5354 38.4863 29.8892 40.0643 30.4199C42.0368 31.0494 44.265 31.934 44.265 34.707C44.265 36.988 42.4313 39.2096 39.2555 39.2096C36.6525 39.2294 34.9358 38.1087 33.5947 36.6144Z" fill="#3ABDB6"/>
<path d="M45.4316 33.2319C45.4316 29.8501 48.0742 27.1758 51.4859 27.1758C54.0889 27.1758 56.1406 28.6701 57.0278 30.7741L54.6221 31.7772C54.0898 30.4993 52.9261 29.6929 51.5057 29.6929C49.5333 29.6929 48.0742 31.2662 48.0742 33.2329C48.0742 35.1995 49.5531 36.7333 51.5256 36.7333C53.0441 36.7333 54.1285 35.8488 54.6617 34.57L57.0674 35.5929C56.1604 37.7364 54.188 39.2505 51.4859 39.2505C48.0742 39.2702 45.4316 36.5564 45.4316 33.2329V33.2319Z" fill="#3ABDB6"/>
<path d="M57.5933 33.2319C57.5933 29.3777 60.4133 27.1758 63.3522 27.1758C64.8905 27.1758 66.2316 27.7855 67.0989 28.8074V27.411H69.7811V39.0124H67.0989V37.4983C66.2505 38.5795 64.8509 39.2486 63.3125 39.2486C60.5312 39.2683 57.5933 37.0467 57.5933 33.231V33.2319ZM67.2377 33.1924C67.2377 31.206 65.7588 29.6139 63.7665 29.6139C61.7742 29.6139 60.2556 31.1872 60.2556 33.1924C60.2556 35.1976 61.794 36.8105 63.7665 36.8105C65.739 36.8105 67.2377 35.1976 67.2377 33.1924Z" fill="#3ABDB6"/>
<path d="M71.3257 24.3438H74.0277V39.0127H71.3257V24.3438Z" fill="#3ABDB6"/>
<path d="M75.206 33.2517C75.206 29.8698 77.8485 27.1758 81.2603 27.1758C84.672 27.1758 87.2561 29.7127 87.2561 33.1538V34.1569H77.7891C78.1638 35.8083 79.4652 36.8905 81.3783 36.8905C82.8968 36.8905 84.0406 36.1038 84.5927 34.8457L86.8012 36.1236C85.7951 38.0112 84.001 39.2505 81.3773 39.2505C77.689 39.2702 75.2041 36.5959 75.2041 33.2526L75.206 33.2517ZM77.908 31.9146H84.5153C84.1208 30.3412 82.9175 29.5348 81.2612 29.5348C79.6049 29.5348 78.3818 30.4984 77.908 31.9146Z" fill="#3ABDB6"/>
<path fill-rule="evenodd" clip-rule="evenodd" d="M21.3483 0L27.8962 9.89066H23.9125V14.158C23.8927 14.5316 23.8927 14.9249 23.8143 15.2985C23.7549 15.672 23.6964 16.0456 23.5973 16.4192C23.518 16.7928 23.3802 17.1466 23.2424 17.5004C22.5714 19.2111 21.4087 20.7251 19.9288 21.8072C19.1993 22.3577 18.3707 22.8103 17.5033 23.1049C16.636 23.4389 15.7281 23.6158 14.8013 23.6949L14.1114 23.7344H10.561C10.107 23.7344 9.67382 23.8134 9.2595 23.931C8.84519 24.0684 8.43087 24.2453 8.05619 24.4815C7.30684 24.9727 6.7151 25.6615 6.34042 26.4679C6.16299 26.8613 6.0252 27.2941 5.96574 27.726C5.9261 27.9424 5.9261 28.1589 5.90628 28.3951V39.2888H0.777832V28.3555C0.797651 27.9029 0.797651 27.4315 0.895803 26.9789C1.01377 26.0746 1.2903 25.1891 1.6848 24.3441C2.45397 22.673 3.69692 21.237 5.25414 20.2339C6.02331 19.723 6.87176 19.3494 7.75891 19.0737C8.64605 18.8178 9.57378 18.6606 10.4807 18.6606H14.1095L14.4446 18.6408C16.2198 18.543 17.8761 17.3235 18.4877 15.672C18.5472 15.4951 18.6255 15.338 18.6453 15.1611C18.7048 14.9842 18.7246 14.8073 18.7435 14.6304C18.7831 14.4535 18.7633 14.2568 18.7831 14.0799V9.91136H14.8193L21.3483 0Z" fill="#3ABDB6"/>
</g>
<defs>
<clipPath id="clip0_79_747">
<rect width="86.4825" height="40.4334" fill="white" transform="translate(0.777832)"/>
</clipPath>
</defs>
</svg>
